HIERARCHY
ROOT SpineBase
{
  OFFSET 0.000000 0.000000 0.000000
  CHANNELS 6 Xposition Yposition Zposition Zrotation Xrotation Yrotation
  JOINT SpineMid
  {
    OFFSET -0.000000 33.179127 0.000000
    CHANNELS 3 Zrotation Xrotation Yrotation
    JOINT SpineShoulder
    {
      OFFSET -0.249764 24.720429 -0.657789
      CHANNELS 3 Zrotation Xrotation Yrotation
      JOINT Neck
      {
        OFFSET -0.156997 8.175741 -0.539268
        CHANNELS 3 Zrotation Xrotation Yrotation
        JOINT Head
        {
          OFFSET -2.406663 7.594441 8.655216
          CHANNELS 3 Zrotation Xrotation Yrotation
          End Site
          {
            OFFSET 0 0 0
          }
        }
      }
      JOINT ShoulderLeft
      {
        OFFSET -10.393898 -8.649658 -14.927041
        CHANNELS 3 Zrotation Xrotation Yrotation
        JOINT ElbowLeft
        {
          OFFSET -1.578806 -26.066776 1.189292
          CHANNELS 3 Zrotation Xrotation Yrotation
          JOINT WristLeft
          {
            OFFSET -1.155654 -21.562511 -1.241073
            CHANNELS 3 Zrotation Xrotation Yrotation
            JOINT HandLeft
            {
              OFFSET 1.918621 2.015280 4.259072
              CHANNELS 3 Zrotation Xrotation Yrotation
              JOINT HandTipLeft
              {
                OFFSET -0.817719 -2.666117 -1.022123
                CHANNELS 3 Zrotation Xrotation Yrotation
                End Site
                {
                  OFFSET 0 0 0
                }
              }
              JOINT ThumbLeft
              {
                OFFSET -4.324366 2.263383 -3.024713
                CHANNELS 3 Zrotation Xrotation Yrotation
                End Site
                {
                  OFFSET 0 0 0
                }
              }
            }
          }
        }
      }
      JOINT ShoulderRight
      {
        OFFSET 0.612191 -2.406165 -10.496880
        CHANNELS 3 Zrotation Xrotation Yrotation
        JOINT ElbowRight
        {
          OFFSET -11.496593 -19.985561 -5.928083
          CHANNELS 3 Zrotation Xrotation Yrotation
          JOINT WristRight
          {
            OFFSET -2.125901 -25.616609 5.198533
            CHANNELS 3 Zrotation Xrotation Yrotation
            JOINT HandRight
            {
              OFFSET 0.516791 -7.048163 1.580020
              CHANNELS 3 Zrotation Xrotation Yrotation
              JOINT HandTipRight
              {
                OFFSET -1.806900 -7.514372 0.274774
                CHANNELS 3 Zrotation Xrotation Yrotation
                End Site
                {
                  OFFSET 0 0 0
                }
              }
              JOINT ThumbRight
              {
                OFFSET -4.218652 0.863325 -0.924684
                CHANNELS 3 Zrotation Xrotation Yrotation
                End Site
                {
                  OFFSET 0 0 0
                }
              }
            }
          }
        }
      }
    }
  }
  JOINT HipLeft
  {
    OFFSET -5.602912 0.261919 -1.414939
    CHANNELS 3 Zrotation Xrotation Yrotation
    JOINT KneeLeft
    {
      OFFSET 16.241438 -25.475618 10.323005
      CHANNELS 3 Zrotation Xrotation Yrotation
      JOINT AnkleLeft
      {
        OFFSET 3.420850 -29.053483 2.378368
        CHANNELS 3 Zrotation Xrotation Yrotation
        JOINT FootLeft
        {
          OFFSET 2.951313 -2.626198 -12.047178
          CHANNELS 3 Zrotation Xrotation Yrotation
          End Site
          {
            OFFSET 0 0 0
          }
        }
      }
    }
  }
  JOINT HipRight
  {
    OFFSET 4.181081 1.871919 -5.576901
    CHANNELS 3 Zrotation Xrotation Yrotation
    JOINT KneeRight
    {
      OFFSET -14.136072 -23.198628 0.616332
      CHANNELS 3 Zrotation Xrotation Yrotation
      JOINT AnkleRight
      {
        OFFSET 8.838019 -34.925885 -1.460385
        CHANNELS 3 Zrotation Xrotation Yrotation
        JOINT FootRight
        {
          OFFSET 2.480349 -2.817602 -10.979221
          CHANNELS 3 Zrotation Xrotation Yrotation
          End Site
          {
            OFFSET 0 0 0
          }
        }
      }
    }
  }
}
MOTION
Frames: 5
Frame Time: 0.033333
65.220013 61.566945 329.610857 0.700888 1.186453 32.584869 -1.229585 -0.622113 -32.598802 -0.000000 0.000000 0.000000 -5.278802 -12.534881 1.687848 0.000000 0.000000 0.000000 -4.753228 -0.899947 -0.199260 4.266668 1.885066 0.111442 0.644333 -0.348183 -0.898030 -12.629086 -13.875986 8.294846 0.000000 0.000000 0.000000 0.000000 0.000000 0.000000 -3.217108 1.080179 0.356692 0.026818 1.514020 -1.150655 7.236628 -10.338956 1.662726 -9.318003 10.051243 0.125768 0.000000 0.000000 0.000000 0.000000 0.000000 0.000000 -21.444798 45.866919 -16.992013 78.079792 -45.238510 30.110754 -27.636450 11.549969 8.030423 0.000000 0.000000 0.000000 -2.904956 -3.346084 -30.707825 -0.352698 4.222792 -1.649887 4.336086 -22.238705 -88.809278 0.000000 0.000000 0.000000
65.110432 61.730795 329.483471 0.450468 0.981718 32.050928 -0.902818 -0.592977 -32.059459 -0.000000 0.000000 0.000000 -5.405025 -14.140211 1.173145 0.000000 0.000000 0.000000 -5.056462 -1.467438 -0.206092 4.538298 2.509072 0.068231 1.797970 -2.708309 -1.087705 -12.879908 -10.893770 8.647487 0.000000 0.000000 0.000000 0.000000 0.000000 0.000000 -3.512795 0.539558 0.734459 0.202449 1.981210 -1.547961 7.360457 -9.107765 1.725802 -8.809675 9.107602 -0.197382 0.000000 0.000000 0.000000 0.000000 0.000000 0.000000 -28.710305 51.878106 -10.677640 95.052765 -45.820050 41.335229 -30.979893 15.611856 8.421752 0.000000 0.000000 0.000000 -2.673581 -3.503176 -30.047080 -0.390128 4.593679 -1.727560 4.835559 -22.141208 -88.813092 0.000000 0.000000 0.000000
65.070356 61.820149 329.346026 0.288087 1.022178 31.187652 -0.775829 -0.725228 -31.195132 -0.000000 0.000000 0.000000 -6.315818 -18.432019 0.360496 0.000000 0.000000 0.000000 -5.154828 -1.829993 -0.206170 4.643827 2.923149 0.033151 3.379762 -3.219965 -4.152948 -11.863929 -10.200749 11.040289 0.000000 0.000000 0.000000 0.000000 0.000000 0.000000 -3.843695 0.473619 0.866184 0.529330 1.828987 -1.666519 7.314205 -8.003984 1.713301 -8.939814 8.204862 -0.348162 0.000000 0.000000 0.000000 0.000000 0.000000 0.000000 -33.905051 54.418695 -5.597030 103.671899 -45.766489 47.234067 -32.126182 19.242556 7.994870 0.000000 0.000000 0.000000 -2.735611 -3.626460 -29.147005 0.010228 4.671396 -1.800328 7.218396 -17.439097 -70.904750 0.000000 0.000000 0.000000
65.111780 62.013374 329.172499 0.224898 0.745372 30.521077 -0.572297 -0.527864 -30.525177 -0.000000 0.000000 0.000000 -7.798708 -22.215862 0.316064 0.000000 0.000000 0.000000 -5.104620 -1.679071 -0.205505 4.597774 2.815362 0.043691 5.341046 -4.068746 -7.898437 -9.212705 -8.892104 13.476493 0.000000 0.000000 0.000000 0.000000 0.000000 0.000000 -3.700727 1.429442 0.314927 0.185617 0.349037 -1.117814 7.225831 -6.329931 1.632142 -8.780404 6.786808 -0.474523 0.000000 0.000000 0.000000 0.000000 0.000000 0.000000 -34.323446 54.090896 -4.614595 102.465471 -46.304054 46.515647 -30.570286 21.754833 5.630800 0.000000 0.000000 0.000000 -2.689582 -3.394075 -28.453424 0.538777 4.948265 -1.802571 6.648194 -8.403918 -37.734555 0.000000 0.000000 0.000000
65.183066 62.237296 328.885689 0.178525 0.152018 31.181174 -0.231441 -0.037625 -31.181486 -0.000000 0.000000 0.000000 -8.810335 -24.815448 0.178486 0.000000 0.000000 0.000000 -5.045814 -1.182226 -0.210188 4.542371 2.345132 0.087917 6.315084 -3.674285 -10.582333 -6.761062 -8.750172 14.997300 0.000000 0.000000 0.000000 0.000000 0.000000 0.000000 -3.698018 2.221794 -0.106628 0.083302 -1.453275 -0.663083 7.172883 -4.605927 1.471335 -8.590780 6.307698 -0.645982 0.000000 0.000000 0.000000 0.000000 0.000000 0.000000 -29.036683 52.315665 -8.377582 94.577434 -47.950991 41.636252 -29.175136 19.135570 7.252627 0.000000 0.000000 0.000000 -2.646376 -3.197895 -28.858958 0.863979 5.424505 -2.062058 1.950068 -2.333730 -9.566616 0.000000 0.000000 0.000000
